<?xml version="1.0" encoding="UTF-8"?>
<svg xmlns="http://www.w3.org/2000/svg" version="1.1" viewBox="0 0 2449.8 2940.2">
  <defs>
    <style>
      .cls-1, .cls-2 {
        fill: #fff;
      }

      .cls-2 {
        stroke: #000;
        stroke-miterlimit: 10;
        stroke-width: 2px;
      }

      .cls-3 {
        isolation: isolate;
      }

      .cls-4 {
        opacity: 0;
      }

      .cls-5 {
        font-family: MyriadPro-Regular, 'Myriad Pro';
        font-size: 80px;
      }

      .cls-6 {
        fill: #ff5a28;
      }
    </style>
  </defs>
  <!-- Generator: Adobe Illustrator 28.6.0, SVG Export Plug-In . SVG Version: 1.2.0 Build 709)  -->
  <g>
    <g id="Layer_1">
      <g id="e52RvJgrka81" shape-rendering="geometricPrecision" text-rendering="geometricPrecision">
        <g>
          <g id="e52RvJgrka84" class="cls-4">
            <path class="cls-6" d="M1239.2,1303.2h17.3c8.6-.2,37.9-.3,57.6-.2h16c1.9-.3,27.9-.4,51.1-.3h0c7.3,0,15.1,0,13.5,0h0c-5-.2,15.8-.5,40.8-.4h0c7.9,0,13.7,0,10.1,0h0c-11.5-.2,2.6-.5,27.5-.5h0c7.9,0,11.2,0,5.8-.2h0c-17.1-.2-10.9-.5,12.2-.6h0c7.3,0,7.9,0,1.2-.2h0c-21.5,0-23.6-.4-4.1-.6h0c6.1,0,4.1,0-3.6-.2h0c-24.2,0-34.4-.4-20-.6h0c4.5,0,0-.2-8-.2h0c-25.2,0-42.8-.3-34.5-.5h0c2.6,0-4.2,0-11.9,0h0c-24.3,0-48,0-46.4-.4h0c.5,0-8.1,0-14.9,0h0c-21.6,0-49.6,0-54.8-.2h0c-1.7,0-11.3,0-16.8,0h0c-17.3.2-47.5,0-59.2,0h-17.4c-11.7.2-41.9.3-59.2,0h-16.8c-5.3.2-33.2.4-54.8.2h0c-6.8,0-15.4,0-14.9,0h0c1.6.3-22.1.4-46.4.4h0c-7.7,0-14.5,0-11.9,0h0c8.3.2-9.3.5-34.5.5h0c-7.9,0-12.6,0-8,.2h0c14.4.2,4.2.5-20,.6h0c-7.6,0-9.7,0-3.5.2h0c19.5.2,17.4.5-4.1.6h0c-6.8,0-6.1,0,1.2.2h0c23.1,0,29.3.4,12.2.6h0c-5.4,0-2,.2,5.8.2h0c25,0,39,.3,27.5.5h0c-3.6,0,2.2.2,10.1,0h0c25,0,45.8.2,40.8.4h0c-1.6,0,6.2,0,13.5,0h0c23.2,0,49.2,0,51.1.3h0c.6,0,9.8,0,16,0h0c19.6-.2,49,0,57.6.2h17.3c14.4-.2,44.9-.2,59.5,0h0Z"/>
            <polygon class="cls-2" points="2327.4 1307.7 1209.3 1299.6 91.2 1307.7 91.2 1309.3 2327.4 1309.3 2327.4 1307.7"/>
          </g>
          <rect class="cls-1" x="91.2" y="1310" width="2236.2" height="1258.4"/>
        </g>
        <g>
          <polygon class="cls-2" points="91.2 1309.7 1209.3 2078 91.2 2846.3 91.2 1309.7"/>
          <polygon class="cls-2" points="2327.4 1309.7 1209.3 2078 2327.4 2846.3 2327.4 1309.7"/>
          <path class="cls-2" d="M1086.8,1939.5L91.2,2846.3h2236.2l-995.6-906.9c-69.4-63.2-175.6-63.2-245,0h0Z"/>
        </g>
        <g id="e52RvJgrka813">
          <polygon class="cls-2" points="2327.4 1468.3 1209.3 2280.2 91.2 1468.3 91.2 1309.7 2327.4 1309.7 2327.4 1468.3"/>
          <path class="cls-6" d="M1239.2,1923.3h0c4.6-6.5,14.6-5.1,17.3,2.4h0c8.6,23.7,37.9,31.9,57.6,16.1h0c6.2-5,15.4-1,16,6.9h0c1.9,25.1,27.9,41,51.1,31.1h0c7.3-3.1,15.1,3.2,13.5,11h0c-5,24.7,15.8,47,40.8,43.7h0c7.9-1,13.7,7.2,10.1,14.3h0c-11.5,22.4,2.6,49.5,27.5,53.1h0c7.9,1.1,11.2,10.6,5.8,16.4h0c-17.1,18.5-10.9,48.4,12.2,58.5h0c7.3,3.2,7.9,13.2,1.2,17.4h0c-21.5,13.2-23.6,43.6-4.1,59.6h0c6.1,5.1,4.1,14.9-3.6,17.1h0c-24.2,6.9-34.4,35.7-20,56.3h0c4.5,6.5,0,15.4-8,15.5h0c-25.2.1-42.8,25.1-34.5,48.8h0c2.6,7.5-4.2,14.9-11.9,12.8h0c-24.3-6.7-48,12.6-46.4,37.7h0c.5,7.9-8.1,13.2-14.9,9.1h0c-21.6-13-49.6-.8-54.8,23.8h0c-1.7,7.8-11.3,10.5-16.8,4.7h0c-17.3-18.3-47.5-14.2-59.2,8.1h0c-3.7,7-13.8,7-17.4,0h0c-11.7-22.3-41.9-26.5-59.2-8.1h0c-5.4,5.8-15.1,3.1-16.8-4.7h0c-5.3-24.6-33.2-36.8-54.8-23.8h0c-6.8,4.1-15.4-1.1-14.9-9.1h0c1.6-25.2-22.1-44.4-46.4-37.7h0c-7.7,2.1-14.5-5.3-11.9-12.8h0c8.3-23.8-9.3-48.7-34.5-48.8h0c-7.9,0-12.6-9-8-15.5h0c14.4-20.7,4.2-49.4-20-56.3h0c-7.6-2.2-9.7-12-3.5-17.1h0c19.5-16,17.4-46.4-4.1-59.6h0c-6.8-4.2-6.1-14.2,1.2-17.4h0c23.1-10.2,29.3-40,12.2-58.5h0c-5.4-5.8-2-15.3,5.8-16.4h0c25-3.6,39-30.6,27.5-53.1h0c-3.6-7.1,2.2-15.3,10.1-14.3h0c25,3.3,45.8-19,40.8-43.7h0c-1.6-7.8,6.2-14.1,13.5-11h0c23.2,9.9,49.2-5.9,51.1-31.1h0c.6-7.9,9.8-11.9,16-6.9h0c19.6,15.8,49,7.6,57.6-16.1h0c2.7-7.5,12.7-8.8,17.3-2.4h0c14.4,20.5,44.9,20.5,59.5,0h0Z"/>
          <g>
            <path d="M1130.1,2172.6c0,34.1-3,62.4-10.8,84l-10.5-7.5c7.3-19.8,9.5-42.4,9.5-76.5v-20.8h11.8v20.8h0ZM1143.2,2274.9v-143.9h-32.6v-11.8h76.5v11.8h-31.3v143.9h-12.6ZM1117.1,2086.4v-11h63.7v11h-63.7ZM1168.5,2243.1v-90.8h11.8v90.8h-11.8ZM1193.3,2085.4v-11h107.8v11h-107.8ZM1284.3,2272.2v-11h-78.2v13.8h-12.3v-102h102.8v99.3h-12.3ZM1200.6,2154.1v-50.4h89.5v50.4h-89.5ZM1206.1,2210.5h32.1v-26.8h-32.1v26.8ZM1206.1,2250.1h32.1v-28.8h-32.1v28.8ZM1213.1,2143.5h64.4v-29.1h-64.4v29.1ZM1250.2,2183.7v26.8h34.1v-26.8h-34.1ZM1250.2,2250.1h34.1v-28.8h-34.1v28.8Z"/>
            <path d="M1210.3,2328c-84,0-152.3-68.3-152.3-152.3s68.3-152.3,152.3-152.3,152.3,68.3,152.3,152.3-68.3,152.3-152.3,152.3h0ZM1210.3,2028.9c-80.9,0-146.8,65.8-146.8,146.8s65.8,146.8,146.8,146.8,146.8-65.9,146.8-146.8-65.8-146.8-146.8-146.8h0Z"/>
          </g>
          <g id="svgGroup">
            <g class="cls-3">
              <text/>
            </g>
          </g>
        </g>
      </g>
      <text class="cls-5" transform="translate(1127.3 2414.1)"><tspan x="0" y="0">2026</tspan></text>
    </g>
  </g>
</svg>